# Structured3D Scene Export
# Scene: dummy_dataset/scene_00000

v 0.000 0.000 0.000
v 5.000 0.000 0.000
v 5.000 4.000 0.000
v 0.000 4.000 0.000
v 0.000 0.000 2.500
v 5.000 0.000 2.500
v 5.000 4.000 2.500
v 0.000 4.000 2.500
v 1.500 0.000 0.800
v 2.500 0.000 0.800
v 2.500 0.000 2.000
v 1.500 0.000 2.000
v 0.400 0.400 0.000
v 1.600 0.400 0.000
v 1.600 1.600 0.000
v 0.400 1.600 0.000
v 0.400 0.400 0.800
v 1.600 0.400 0.800
v 1.600 1.600 0.800
v 0.400 1.600 0.800
v 3.000 2.500 0.000
v 5.000 2.500 0.000
v 5.000 3.500 0.000
v 3.000 3.500 0.000
v 3.000 2.500 1.600
v 5.000 2.500 1.600
v 5.000 3.500 1.600
v 3.000 3.500 1.600
v 1.700 1.200 0.000
v 3.300 1.200 0.000
v 3.300 2.800 0.000
v 1.700 2.800 0.000
v 1.700 1.200 1.000
v 3.300 1.200 1.000
v 3.300 2.800 1.000
v 1.700 2.800 1.000

f 1 2 3 4
f 1 2 6 5
f 3 4 8 7
f 1 4 8 5
f 2 3 7 6
f 5 6 7 8
# 0
f 13 14 15 16
f 17 18 19 20
f 13 14 18 17
f 15 16 20 19
f 13 16 20 17
f 14 15 19 18
# 1
f 21 22 23 24
f 25 26 27 28
f 21 22 26 25
f 23 24 28 27
f 21 24 28 25
f 22 23 27 26
# 2
f 29 30 31 32
f 33 34 35 36
f 29 30 34 33
f 31 32 36 35
f 29 32 36 33
f 30 31 35 34
