{
  "asset": {
    "version": "2.0",
    "generator": "Structured3D Exporter"
  },
  "scene": 0,
  "scenes": [
    {
      "name": "Structured3D Scene",
      "nodes": [
        0
      ]
    }
  ],
  "nodes": [
    {
      "name": "Room",
      "mesh": 0
    }
  ],
  "meshes": [
    {
      "name": "Scene",
      "primitives": [
        {
          "attributes": {
            "POSITION": 0
          },
          "mode": 4
        }
      ]
    }
  ],
  "accessors": [
    {
      "bufferView": 0,
      "componentType": 5126,
      "count": 0,
      "type": "VEC3",
      "max": [
        0,
        0,
        0
      ],
      "min": [
        0,
        0,
        0
      ]
    }
  ],
  "bufferViews": [
    {
      "buffer": 0,
      "byteOffset": 0,
      "byteLength": 0
    }
  ],
  "buffers": [
    {
      "byteLength": 0
    }
  ]
}